# xmcd
# 
# Track frame offsets:
#     187
#     19365
#     37860
#     58662
#     81015
#     100050
#     115865
#     137010
#     156252
#     177422
#     196332
#     214805
# 
# Disc length: 3158
# 
# Revision: 5
# Processed by: cddbd v1.5.2PL0 Copyright (c) Steve Scherf et al.
# Submitted via: BonkEnc v1.0.8
# 
DISCID=9f0c540c
DTITLE=WINK - WINK MEMORIES 1988-1996 (Disc2)
DYEAR=1996
DGENRE=Pop
TTITLE0=摩天楼ミュージアム
TTITLE1=ふりむかないで
TTITLE2=リアルな夢の条件
TTITLE3=永遠のレディードール
TTITLE4=結婚しようね
TTITLE5=咲き誇れ愛しさよ
TTITLE6=いつまでも好きでいたくて
TTITLE7=トゥインクル トゥインクル
TTITLE8=シェリー モン シェリ
TTITLE9=私たちらしいルール
TTITLE10=Jive Into The Night野蛮な夜に (Hyper Euro Mix)
TTITLE11=Angel Love Story -秋色の天使-
EXTD=YEAR: 1996
EXTT0=
EXTT1=
EXTT2=
EXTT3=
EXTT4=
EXTT5=
EXTT6=
EXTT7=
EXTT8=
EXTT9=
EXTT10=
EXTT11=
PLAYORDER=
